RBDS017runT45_grf
version=1
nRows=18
nColumns=19
inDegrees=no
endheader
time	ground_force_r_vx	ground_force_r_vy	ground_force_r_vz	ground_force_r_px	ground_force_r_py	ground_force_r_pz	ground_force_r_mx	ground_force_r_my	ground_force_r_mz	ground_force_l_vx	ground_force_l_vy	ground_force_l_vz	ground_force_l_px	ground_force_l_py	ground_force_l_pz	ground_force_l_mx	ground_force_l_my	ground_force_l_mz
     14.99900000	   -271.58601292	   2146.61998559	    -17.29316700	      2.26111594	      0.00000000	      1.08221554	     -0.00000000	      9.68594610	      0.00000000	      0.00000000	      0.00000000	      0.00000000	      0.00000000	      0.00000000	      0.00000000	      0.00000000	      0.00000000	      0.00000000
     15.00000000	   -270.41224778	   2165.42682829	    -17.81099768	      2.25812892	      0.00000000	      1.08225837	     -0.00000000	     10.12276180	      0.00000000	      0.00000000	      0.00000000	      0.00000000	      0.00000000	      0.00000000	      0.00000000	      0.00000000	      0.00000000	      0.00000000
     15.00100000	   -268.10510887	   2180.82898118	    -18.42247301	      2.25506395	      0.00000000	      1.08238557	     -0.00000000	     10.51451544	      0.00000000	      0.00000000	      0.00000000	      0.00000000	      0.00000000	      0.00000000	      0.00000000	      0.00000000	      0.00000000	      0.00000000
     15.00200000	   -265.79796995	   2196.23113407	    -19.03394833	      2.25199898	      0.00000000	      1.08251278	     -0.00000000	     10.90626907	      0.00000000	      0.00000000	      0.00000000	      0.00000000	      0.00000000	      0.00000000	      0.00000000	      0.00000000	      0.00000000	      0.00000000
     15.00300000	   -263.49083104	   2211.63328697	    -19.64542366	      2.24893402	      0.00000000	      1.08263998	     -0.00000000	     11.29802271	      0.00000000	      0.00000000	      0.00000000	      0.00000000	      0.00000000	      0.00000000	      0.00000000	      0.00000000	      0.00000000	      0.00000000
     15.00400000	   -260.44118953	   2224.87395120	    -20.32603772	      2.24581050	      0.00000000	      1.08281735	     -0.00000000	     11.65253420	      0.00000000	      0.00000000	      0.00000000	      0.00000000	      0.00000000	      0.00000000	      0.00000000	      0.00000000	      0.00000000	      0.00000000
     15.00500000	   -257.02029672	   2237.03387110	    -21.04122114	      2.24265771	      0.00000000	      1.08301980	     -0.00000000	     11.98842461	      0.00000000	      0.00000000	      0.00000000	      0.00000000	      0.00000000	      0.00000000	      0.00000000	      0.00000000	      0.00000000	      0.00000000
     15.00600000	   -253.59940391	   2249.19379101	    -21.75640457	      2.23950492	      0.00000000	      1.08322225	     -0.00000000	     12.32431503	      0.00000000	      0.00000000	      0.00000000	      0.00000000	      0.00000000	      0.00000000	      0.00000000	      0.00000000	      0.00000000	      0.00000000
     15.00700000	   -249.81982022	   2260.33066150	    -22.50623036	      2.23632020	      0.00000000	      1.08344636	     -0.00000000	     12.63864475	      0.00000000	      0.00000000	      0.00000000	      0.00000000	      0.00000000	      0.00000000	      0.00000000	      0.00000000	      0.00000000	      0.00000000
     15.00800000	   -245.32285475	   2269.42143318	    -23.32534089	      2.23307161	      0.00000000	      1.08371382	     -0.00000000	     12.90985309	      0.00000000	      0.00000000	      0.00000000	      0.00000000	      0.00000000	      0.00000000	      0.00000000	      0.00000000	      0.00000000	      0.00000000
     15.00900000	   -240.82588928	   2278.51220485	    -24.14445142	      2.22982301	      0.00000000	      1.08398128	     -0.00000000	     13.18106144	      0.00000000	      0.00000000	      0.00000000	      0.00000000	      0.00000000	      0.00000000	      0.00000000	      0.00000000	      0.00000000	      0.00000000
     15.01000000	   -236.32892382	   2287.60297653	    -24.96356195	      2.22657442	      0.00000000	      1.08424874	     -0.00000000	     13.45226978	      0.00000000	      0.00000000	      0.00000000	      0.00000000	      0.00000000	      0.00000000	      0.00000000	      0.00000000	      0.00000000	      0.00000000
     15.01100000	   -230.81072547	   2293.80133087	    -25.87740275	      2.22322409	      0.00000000	      1.08457021	     -0.00000000	     13.65216207	      0.00000000	      0.00000000	      0.00000000	      0.00000000	      0.00000000	      0.00000000	      0.00000000	      0.00000000	      0.00000000	      0.00000000
     15.01200000	   -225.29252713	   2299.99968521	    -26.79124356	      2.21987377	      0.00000000	      1.08489168	     -0.00000000	     13.85205437	      0.00000000	      0.00000000	      0.00000000	      0.00000000	      0.00000000	      0.00000000	      0.00000000	      0.00000000	      0.00000000	      0.00000000
     15.01300000	   -219.77432879	   2306.19803955	    -27.70508436	      2.21652345	      0.00000000	      1.08521315	     -0.00000000	     14.05194666	      0.00000000	      0.00000000	      0.00000000	      0.00000000	      0.00000000	      0.00000000	      0.00000000	      0.00000000	      0.00000000	      0.00000000
     15.01400000	   -213.62243070	   2310.58446561	    -28.67028541	      2.21310277	      0.00000000	      1.08556301	     -0.00000000	     14.20138837	      0.00000000	      0.00000000	      0.00000000	      0.00000000	      0.00000000	      0.00000000	      0.00000000	      0.00000000	      0.00000000	      0.00000000
     15.01500000	   -207.15368274	   2314.06492751	    -29.66116659	      2.20964691	      0.00000000	      1.08592706	     -0.00000000	     14.32560479	      0.00000000	      0.00000000	      0.00000000	      0.00000000	      0.00000000	      0.00000000	      0.00000000	      0.00000000	      0.00000000	      0.00000000
     15.01600000	   -200.68493478	   2317.54538942	    -30.65204776	      2.20619105	      0.00000000	      1.08629112	      0.00000000	     14.44982121	      0.00000000	      0.00000000	      0.00000000	      0.00000000	      0.00000000	      0.00000000	      0.00000000	      0.00000000	      0.00000000	      0.00000000
